<svg id="visual" viewBox="0 0 960 540" width="960" height="540" xmlns="http://www.w3.org/2000/svg" xmlns:xlink="http://www.w3.org/1999/xlink" version="1.1"><path d="M0 373L32 372.5C64 372 128 371 192 386.8C256 402.7 320 435.3 384 438.8C448 442.3 512 416.7 576 398.5C640 380.3 704 369.7 768 360C832 350.3 896 341.7 928 337.3L960 333L960 541L928 541C896 541 832 541 768 541C704 541 640 541 576 541C512 541 448 541 384 541C320 541 256 541 192 541C128 541 64 541 32 541L0 541Z" fill="#333f52" stroke-linecap="round" stroke-linejoin="miter"></path></svg>